# xmcd
#
# Track frame offsets:
#	150
#	18257
#	33997
#	52197
#	70890
#	85922
#	99875
#	116367
#	136530
#	153605
#	169630
#	182777
#	198727
#	213235
#	226247
#	244632
#	260505
#	276087
#	294252
#	311527
#
# Disc length: 4384 seconds
#
# Revision: 3
# Processed by: cddbd v1.5PL3 Copyright (c) Steve Scherf et al.
# Submitted via: EasyCDDAExtractor 5.0.7
#
DISCID=0e111e14
DTITLE=Boney M. - 20 Super Hits Gold
DYEAR=1900
DGENRE=Blues
TTITLE0=Rivers of babylon
TTITLE1=Daddy cool
TTITLE2=Sunny
TTITLE3=Brown girl in the ring
TTITLE4=Rasputin
TTITLE5=Ma baker
TTITLE6=Hooray! hooray! it's a holiday
TTITLE7=Painter man
TTITLE8=Belfast
TTITLE9=No woman no cry
TTITLE10=Mary's boy child/oh my lord
TTITLE11=Gotta go home
TTITLE12=Still i'm sad
TTITLE13=Nightflight to venus
TTITLE14=Felicidad
TTITLE15=El lute
TTITLE16=Baby do you wanna bump
TTITLE17=Kalimba de luna
TTITLE18=Happy song
TTITLE19=Mega mix
EXTD=
EXTT0=
EXTT1=
EXTT2=
EXTT3=
EXTT4=
EXTT5=
EXTT6=
EXTT7=
EXTT8=
EXTT9=
EXTT10=
EXTT11=
EXTT12=
EXTT13=
EXTT14=
EXTT15=
EXTT16=
EXTT17=
EXTT18=
EXTT19=
PLAYORDER=
